<svg width="512" height="512" viewBox="0 0 512 512" fill="none" xmlns="http://www.w3.org/2000/svg">
  <defs>
    <linearGradient id="leftGrad" x1="130" y1="120" x2="250" y2="390" gradientUnits="userSpaceOnUse">
      <stop stop-color="#7DD3FC"/>
      <stop offset="1" stop-color="#38BDF8"/>
    </linearGradient>
    <linearGradient id="rightGrad" x1="280" y1="110" x2="390" y2="400" gradientUnits="userSpaceOnUse">
      <stop stop-color="#818CF8"/>
      <stop offset="1" stop-color="#4F46E5"/>
    </linearGradient>
    <filter id="glow" x="-20%" y="-20%" width="140%" height="140%">
      <feGaussianBlur stdDeviation="8" result="blur"/>
      <feMerge>
        <feMergeNode in="blur"/>
        <feMergeNode in="SourceGraphic"/>
      </feMerge>
    </filter>
  </defs>

  <path d="M145 173C145 158 153 145 166 137L231 99C249 88 271 101 271 122V136L190 292L145 269V173Z"
        fill="url(#leftGrad)" stroke="#93C5FD" stroke-width="14" stroke-linejoin="round"/>
  <path d="M364 176C364 161 356 148 343 140L281 104C264 94 243 106 243 126V143L319 226L256 352L310 408L345 388C357 381 364 368 364 354V176Z"
        fill="url(#rightGrad)" stroke="#818CF8" stroke-width="14" stroke-linejoin="round"/>
  <path d="M279 88L156 257H231L188 416L356 218H274L279 88Z"
        fill="#0B1020" filter="url(#glow)"/>
</svg>